# xmcd
#
# Track frame offsets:
#	182
#	17532
#	59132
#	82307
#	111107
#	137582
#	164657
#
# Disc length: 2402 seconds
# Revision: 0
# Processed by: cddbd v1.5.2PL0 Copyright (c) Steve Scherf et al.
# Submitted via: dBpowerAMP V12.0
#
DISCID=61096007
DTITLE=West End - Love Rules
DYEAR=1995
DGENRE=House
TTITLE0=Love Rules [Radio Mix]
TTITLE1=Love Rules [Dick Van Dyke Mix]
TTITLE2=Love Rules [MK Instrumental]
TTITLE3=Love Rules [Chris and James Epic Adventure Edit]
TTITLE4=Love Rules [Lenny Fontana Anthem Edit]
TTITLE5=Love Rules [Eddie Fingers Edit]
TTITLE6=Love Rules [NYK's OTIK Dub]
EXTD=
EXTT0=
EXTT1=
EXTT2=
EXTT3=
EXTT4=
EXTT5=
EXTT6=
PLAYORDER=
